# xmcd
#
# Track frame offsets: 
#        150
#        10642
#        21653
#        31200
#        42801
#        53565
#        66629
#        78742
#        88632
#        99086
#        112148
#        122478
#        132836
#        144197
#        154911
#        163911
#        175720
#        186007
#        197319
#        211390
#        222587
#        233402
#        245340
#        255402
#        265691
#        281979
#        293857
#        309010
#
# Disc length: 4310 seconds
#
# Revision: 0
# Processed by: cddbd v1.5.2PL0 Copyright (c) Steve Scherf et al.
# Submitted via: ExactAudioCopy v0.99pb5
#
DISCID=8210d41c
DTITLE=Various Artist - Twist And Shout
DYEAR=1900
DGENRE=Rock and Roll
TTITLE0=Bye bye love - The Everly Brothers
TTITLE1=Diana - Paul Anka
TTITLE2=Oh Boy - Buddy Holly
TTITLE3=Lonley Boy - Paul Anka
TTITLE4=Mr Sadman - The Chordettes
TTITLE5=Dizzy - Tommy Roe
TTITLE6=Sealed With a Kiss - Brian Hyland
TTITLE7=Rock Around The Clock - Bill Haley And His Comets
TTITLE8=Its My Party - Lesley Gore
TTITLE9=Shout - Lulu
TTITLE10=Duke Of Earl - Gene Chandler
TTITLE11=I Fought The Law - The Bobby Fuller Four
TTITLE12=Speedy Gonzales - Pat Boone
TTITLE13=Devoted To You - The Everly Brothers
TTITLE14=La Bamba - Ritchie Valens
TTITLE15=Only You - The Platters
TTITLE16=All I Have To Do Is Dream - The Everly Brothers
TTITLE17=Poetry In Motion - Johnny Tillotson
TTITLE18=Green Green Grass Of Home - Tom Jones
TTITLE19=Twist And Shout - The Isley Brothers
TTITLE20=Lets Dance - Chris Montez
TTITLE21=Put Your Head On My Shoulder - Paul Anka
TTITLE22=The Shoop Shoop Song - Betty Everett
TTITLE23=Yesterday - Marianne Faithful
TTITLE24=Unchained Melody - Righteous Brothers
TTITLE25=California Dreamin - The Mamas And The Papas
TTITLE26=You've Got Your Troubles - The Fortunes
TTITLE27=Rain And Tears - Aphrodite's Child
EXTD=
EXTT0=
EXTT1=
EXTT2=
EXTT3=
EXTT4=
EXTT5=
EXTT6=
EXTT7=
EXTT8=
EXTT9=
EXTT10=
EXTT11=
EXTT12=
EXTT13=
EXTT14=
EXTT15=
EXTT16=
EXTT17=
EXTT18=
EXTT19=
EXTT20=
EXTT21=
EXTT22=
EXTT23=
EXTT24=
EXTT25=
EXTT26=
EXTT27=
PLAYORDER=
